<svg xmlns="http://www.w3.org/2000/svg" width="150" height="258" viewBox="0 0 150 258">
  <g id="DOWNLOAD" transform="translate(-851 -2928)">
    <g id="_10_Download" data-name="10 Download" transform="translate(881 2928)">
      <rect id="Rectangle_71" data-name="Rectangle 71" width="10.653" height="23.866" rx="1" transform="translate(-17 35.225)" fill="#fff"/>
      <rect id="Rectangle_72" data-name="Rectangle 72" width="10.653" height="15.056" rx="1" transform="translate(-17 66.05)" fill="#fff"/>
      <path id="Path_136" data-name="Path 136" d="M118.5,200H29.012a15.644,15.644,0,0,1-15.625-15.625V15.625A15.644,15.644,0,0,1,29.012,0H118.5a15.644,15.644,0,0,1,15.625,15.625v168.75A15.644,15.644,0,0,1,118.5,200ZM29.012,6.25a9.375,9.375,0,0,0-9.375,9.375v168.75a9.375,9.375,0,0,0,9.375,9.375H118.5a9.375,9.375,0,0,0,9.375-9.375V15.625A9.375,9.375,0,0,0,118.5,6.25Z" transform="translate(-25.984)" fill="#fff"/>
      <path id="Path_137" data-name="Path 137" d="M38.7,53.136a8.809,8.809,0,1,1-8.809,8.809A8.809,8.809,0,0,1,38.7,53.136Z" transform="translate(9.077 112.914)" fill="#fff" fill-rule="evenodd"/>
      <path id="Path_138" data-name="Path 138" d="M49.621,11.886H32.012a3.125,3.125,0,0,1,0-6.25H49.621a3.125,3.125,0,1,1,0,6.25Z" transform="translate(6.954 11.976)" fill="#fff"/>
      <path id="Path_139" data-name="Path 139" d="M63.719,48.522H28.488a3.125,3.125,0,1,1,0-6.25H63.719a3.125,3.125,0,1,1,0,6.25Z" transform="translate(-0.535 89.828)" fill="#fff"/>
      <path id="Path_140" data-name="Path 140" d="M46.1,56.276A3.1,3.1,0,0,1,43.9,55.36L26.28,37.748A3.127,3.127,0,1,1,30.7,33.323L46.1,48.732,61.511,33.323a3.125,3.125,0,1,1,4.419,4.419L48.314,55.354a3.1,3.1,0,0,1-2.209.922Z" transform="translate(-0.536 68.865)" fill="#fff"/>
      <path id="Path_141" data-name="Path 141" d="M34.125,83.219A3.125,3.125,0,0,1,31,80.094V22.853a3.125,3.125,0,0,1,6.25,0V80.094A3.125,3.125,0,0,1,34.125,83.219Z" transform="translate(11.444 41.922)" fill="#fff"/>
    </g>
    <text id="DOWNLOAD-2" data-name="DOWNLOAD" transform="translate(851 3181)" fill="#fff" font-size="18" font-family="SegoeUIBlack, Segoe UI" letter-spacing="0.3em"><tspan x="0" y="0">DOWNLOAD</tspan></text>
  </g>
</svg>
