<svg xmlns="http://www.w3.org/2000/svg" viewBox="0 0 168 258">
  <g transform="translate(-1066 -2928)">
    <g id="_15_Play_Video" data-name="15 Play Video" transform="translate(1088 2928)">
      <rect id="Rectangle_73" data-name="Rectangle 73" width="10.66" height="23.87" rx="1" transform="translate(0 35.227)" fill="#fff"/>
      <rect id="Rectangle_74" data-name="Rectangle 74" width="10.66" height="15.065" rx="1" transform="translate(0 66.046)" fill="#fff"/>
      <path id="Path_142" data-name="Path 142" d="M118.511,200.039H29.052a15.644,15.644,0,0,1-15.644-15.644V15.683A15.644,15.644,0,0,1,29.052.039h89.459a15.644,15.644,0,0,1,15.644,15.644V184.395a15.644,15.644,0,0,1-15.644,15.644ZM29.052,6.3a9.386,9.386,0,0,0-9.386,9.386V184.395a9.386,9.386,0,0,0,9.386,9.386h89.459a9.386,9.386,0,0,0,9.386-9.386V15.683A9.386,9.386,0,0,0,118.511,6.3Z" transform="translate(-9.006 -0.039)" fill="#fff"/>
      <path id="Path_143" data-name="Path 143" d="M38.693,53.11a8.808,8.808,0,1,1-8.808,8.807,8.808,8.808,0,0,1,8.808-8.807Z" transform="translate(26.071 112.939)" fill="#fff" fill-rule="evenodd"/>
      <path id="Path_144" data-name="Path 144" d="M49.633,11.926H32.018a3.129,3.129,0,1,1,0-6.258H49.633a3.129,3.129,0,0,1,0,6.258Z" transform="translate(23.95 11.944)" fill="#fff"/>
      <path id="Path_145" data-name="Path 145" d="M101.423,48.517H22.167a3.129,3.129,0,1,1,0-6.258h79.256a3.129,3.129,0,1,1,0,6.258Z" transform="translate(2.979 89.839)" fill="#fff"/>
      <path id="Path_146" data-name="Path 146" d="M24.982,51.512a3.129,3.129,0,0,1-3.129-3.129v-4.4a3.129,3.129,0,1,1,6.258,0v4.4A3.129,3.129,0,0,1,24.982,51.512Z" transform="translate(8.972 86.844)" fill="#fff"/>
      <path id="Path_147" data-name="Path 147" d="M26.389,79.719A3.129,3.129,0,0,1,23.26,76.59V19.349a3.11,3.11,0,0,1,4.693-2.7L76.387,45.274a3.129,3.129,0,0,1,0,5.388L27.981,79.284a3.16,3.16,0,0,1-1.593.435Zm3.129-54.886V71.105L68.672,47.968Z" transform="translate(11.967 34.42)" fill="#fff"/>
    </g>
    <text data-name="LAUNCH APP" transform="translate(1066 3181)" fill="#fff" font-size="18" font-family="SegoeUIBlack, Segoe UI" letter-spacing="0.3em"><tspan x="0" y="0">LAUNCH APP</tspan></text>
  </g>
</svg>
