<svg xmlns="http://www.w3.org/2000/svg" width="33.654" height="27.333" viewBox="0 0 33.654 27.333">
  <path id="Icon_awesome-twitter" data-name="Icon awesome-twitter" d="M30.194,10.193c.021.3.021.6.021.9,0,9.118-6.94,19.624-19.624,19.624A19.491,19.491,0,0,1,0,27.617a14.268,14.268,0,0,0,1.666.085,13.813,13.813,0,0,0,8.563-2.947A6.909,6.909,0,0,1,3.78,19.973a8.7,8.7,0,0,0,1.3.107A7.3,7.3,0,0,0,6.9,19.845a6.9,6.9,0,0,1-5.531-6.769V12.99a6.946,6.946,0,0,0,3.118.875A6.908,6.908,0,0,1,2.349,4.641,19.605,19.605,0,0,0,16.57,11.858a7.786,7.786,0,0,1-.171-1.58A6.9,6.9,0,0,1,28.336,5.559a13.58,13.58,0,0,0,4.378-1.666,6.879,6.879,0,0,1-3.032,3.8,13.827,13.827,0,0,0,3.972-1.068,14.827,14.827,0,0,1-3.459,3.566Z" transform="translate(0 -3.381)" fill="#fff"/>
</svg>
