<svg xmlns="http://www.w3.org/2000/svg" width="38.874" height="27.333" viewBox="0 0 38.874 27.333">
  <path id="Icon_awesome-youtube" data-name="Icon awesome-youtube" d="M39.111,8.777a4.884,4.884,0,0,0-3.437-3.459C32.643,4.5,20.487,4.5,20.487,4.5S8.331,4.5,5.3,5.318A4.885,4.885,0,0,0,1.862,8.777c-.812,3.051-.812,9.417-.812,9.417s0,6.366.812,9.417a4.812,4.812,0,0,0,3.437,3.4c3.032.818,15.188.818,15.188.818s12.156,0,15.188-.818a4.812,4.812,0,0,0,3.437-3.4c.812-3.051.812-9.417.812-9.417s0-6.366-.812-9.417Zm-22.6,15.2V12.414l10.16,5.78-10.16,5.78Z" transform="translate(-1.05 -4.5)" fill="#fff"/>
</svg>
