<svg xmlns="http://www.w3.org/2000/svg">
  <symbol id="cardboard-vr-icon" viewBox="0 0 312 258">
    <g id="VR" transform="translate(-1282 -2928)">
    <g id="cardboard" transform="translate(1340 2928)">
        <path id="Path_131" data-name="Path 131" d="M13.417,67.953a3.125,3.125,0,0,0,4.406,0l12.5-12.5a3.125,3.125,0,0,0-4.406-4.406L18.745,58.2V44.141A15.625,15.625,0,0,1,34.23,28.25H40.62a3.125,3.125,0,0,0,0-6.25H34.23A21.875,21.875,0,0,0,12.5,44.094V58.156L5.323,51.047A3.116,3.116,0,0,0,.917,55.453Z" transform="translate(0.005 12.375)" fill="#fff"/>
        <path id="Path_132" data-name="Path 132" d="M153.125,60h-150A3.125,3.125,0,0,0,0,63.125v100a3.125,3.125,0,0,0,3.125,3.125H47.891c9.375,0,13.781-11.234,18.031-22.109C69.234,135.641,73,126,78.125,126s8.531,9.594,11.578,18.063c3.937,10.937,8,22.187,17.453,22.187h45.969a3.125,3.125,0,0,0,3.125-3.125v-100A3.125,3.125,0,0,0,153.125,60ZM150,160H107.156c-5.062,0-8.516-9.594-11.578-18.062-3.937-10.937-8-22.187-17.453-22.187S64.344,131,60.094,141.859C56.766,150.359,53,160,47.891,160H6.25V66.25H150Z" transform="translate(0 33.75)" fill="#fff"/>
        <path id="Path_133" data-name="Path 133" d="M33.554,119.519A18.859,18.859,0,1,0,14.71,100.659a18.859,18.859,0,0,0,18.844,18.859Zm0-31.453A12.609,12.609,0,1,1,20.96,100.659,12.609,12.609,0,0,1,33.554,88.066Z" transform="translate(8.274 46.013)" fill="#fff"/>
        <path id="Path_134" data-name="Path 134" d="M79.234,119.519A18.859,18.859,0,1,0,60.39,100.659a18.859,18.859,0,0,0,18.844,18.859Zm0-31.453A12.609,12.609,0,1,1,66.64,100.659,12.609,12.609,0,0,1,79.234,88.066Z" transform="translate(33.969 46.013)" fill="#fff"/>
        <path id="Path_135" data-name="Path 135" d="M167.922,0H47.828A11.844,11.844,0,0,0,36,11.828V69.422A11.844,11.844,0,0,0,47.828,81.25H167.922A11.844,11.844,0,0,0,179.75,69.422V11.828A11.844,11.844,0,0,0,167.922,0ZM42.25,25h3.125A3.391,3.391,0,0,1,48.5,28.125v25a3.641,3.641,0,0,1-3.125,3.125H42.25ZM173.5,69.422A5.578,5.578,0,0,1,167.922,75H47.828a5.578,5.578,0,0,1-5.578-5.578V62.5h3.125a9.891,9.891,0,0,0,9.375-9.375v-25a9.609,9.609,0,0,0-9.375-9.375H42.25V11.828A5.578,5.578,0,0,1,47.828,6.25H167.922a5.578,5.578,0,0,1,5.578,5.578Z" transform="translate(20.25)" fill="#fff"/>
    </g>
    <text id="PUT_IN_CARDBOARD_VR" data-name="PUT IN CARDBOARD VR" transform="translate(1282 3181)" fill="#fff" font-size="18" font-family="SegoeUIBlack, Segoe UI" letter-spacing="0.3em"><tspan x="0" y="0">PUT IN CARDBOARD VR</tspan></text>
    </g>
  </symbol>
</svg>
