<svg xmlns="http://www.w3.org/2000/svg" width="27.333" height="27.333" viewBox="0 0 27.333 27.333">
  <path id="Icon_awesome-linkedin-in" data-name="Icon awesome-linkedin-in" d="M6.118,27.334H.451V9.085H6.118ZM3.282,6.6A3.3,3.3,0,1,1,6.564,3.283,3.31,3.31,0,0,1,3.282,6.6ZM27.327,27.334H21.673V18.45c0-2.117-.043-4.832-2.946-4.832-2.946,0-3.4,2.3-3.4,4.68v9.036H9.668V9.085H15.1v2.489h.079a5.954,5.954,0,0,1,5.362-2.947c5.735,0,6.789,3.777,6.789,8.682V27.334Z" transform="translate(0 -0.001)" fill="#fff"/>
</svg>
